<svg xmlns="http://www.w3.org/2000/svg" viewBox="0 0 512 512">
  <rect width="512" height="512" rx="110" fill="#1a7f4e"/>
  <path d="M156 96h200a12 12 0 0 1 12 12v296l-28-20-28 20-28-20-28 20-28-20-28 20-28-20-28 20V108a12 12 0 0 1 12-12z" fill="#ffffff"/>
  <rect x="180" y="150" width="152" height="18" rx="9" fill="#1a7f4e" opacity=".85"/>
  <rect x="180" y="196" width="110" height="14" rx="7" fill="#9db8aa"/>
  <rect x="306" y="196" width="26" height="14" rx="7" fill="#9db8aa"/>
  <rect x="180" y="228" width="110" height="14" rx="7" fill="#9db8aa"/>
  <rect x="306" y="228" width="26" height="14" rx="7" fill="#9db8aa"/>
  <rect x="180" y="260" width="110" height="14" rx="7" fill="#9db8aa"/>
  <rect x="306" y="260" width="26" height="14" rx="7" fill="#9db8aa"/>
  <rect x="180" y="304" width="152" height="18" rx="9" fill="#1a7f4e" opacity=".85"/>
</svg>
